# xmcd
#
# Track frame offsets:
#	182
#	15245
#	29877
#	42885
#	61030
#	75597
#	86487
#	117985
#	133735
#	150670
#	161635
#	172652
#	189827
#	210722
#
# Disc length: 3104 seconds
#
# Revision: 0
# Processed by: cddbd v1.5PL3 Copyright (c) Steve Scherf et al.
# Submitted via: dBpowerAMP V4.0
#
DISCID=a50c1e0e
DTITLE=Various Artist - Acervo Especial - MPB
DYEAR=1900
DGENRE=Samba
TTITLE0=Miucha e Tom Jobim/Vai Levando
TTITLE1=Maria Bethania/Anos Dourados
TTITLE2=Paulinho da Viola/Um Caso Perdido
TTITLE3=Johnny Alf/O Que É Amar
TTITLE4=João Bosco/ O Bebado e a Equilibrista
TTITLE5=Rafael Rabello/Luiza
TTITLE6=Elizeth Cardoso-Jacob do Bandolim-Zimbro Trio/Carolina
TTITLE7=Gal Costa/Cabelo
TTITLE8=Chico Buarque/Todo Sentimento
TTITLE9=Nana Caymmi/Milagre
TTITLE10=Gilberto Gil/Procissão
TTITLE11=Maria Creusa/Dom de Iludir 
TTITLE12=Fagner/Lua do Leblon
TTITLE13=Maysa/Morrer de Amor
EXTD=
EXTT0=
EXTT1=
EXTT2=
EXTT3=
EXTT4=
EXTT5=
EXTT6=
EXTT7=
EXTT8=
EXTT9=
EXTT10=
EXTT11=
EXTT12=
EXTT13=
PLAYORDER=
